<mxfile host="app.diagrams.net" modified="2023-08-21T13:03:27.298Z" agent="Mozilla/5.0 (Windows NT 10.0; Win64; x64) AppleWebKit/537.36 (KHTML, like Gecko) Chrome/116.0.0.0 Safari/537.36" etag="P_caHX_OKFssra27z9nc" version="21.6.6" type="github">
  <diagram name="Page-1" id="8wrmEmwH4_2tLNOu9vzc">
    <mxGraphModel dx="1050" dy="566" grid="1" gridSize="10" guides="1" tooltips="1" connect="1" arrows="1" fold="1" page="1" pageScale="1" pageWidth="827" pageHeight="1169" math="0" shadow="0">
      <root>
        <mxCell id="0" />
        <mxCell id="1" parent="0" />
        <mxCell id="Mp4XWGw3tbu1l4GpmVqD-1" value="&lt;font style=&quot;font-size: 14px;&quot;&gt;Member&lt;/font&gt;" style="rounded=0;whiteSpace=wrap;html=1;" vertex="1" parent="1">
          <mxGeometry x="40" y="110" width="90" height="30" as="geometry" />
        </mxCell>
        <mxCell id="Mp4XWGw3tbu1l4GpmVqD-2" value="&lt;font style=&quot;font-size: 14px;&quot;&gt;Report&lt;/font&gt;" style="rounded=0;whiteSpace=wrap;html=1;" vertex="1" parent="1">
          <mxGeometry x="300" y="340" width="90" height="40" as="geometry" />
        </mxCell>
        <mxCell id="Mp4XWGw3tbu1l4GpmVqD-3" value="&lt;font style=&quot;font-size: 14px;&quot;&gt;Borrowing&lt;/font&gt;" style="rounded=0;whiteSpace=wrap;html=1;" vertex="1" parent="1">
          <mxGeometry x="430" y="210" width="100" height="50" as="geometry" />
        </mxCell>
        <mxCell id="Mp4XWGw3tbu1l4GpmVqD-4" value="&lt;font style=&quot;font-size: 14px;&quot;&gt;Book&lt;/font&gt;" style="rounded=0;whiteSpace=wrap;html=1;" vertex="1" parent="1">
          <mxGeometry x="360" y="110" width="90" height="30" as="geometry" />
        </mxCell>
        <mxCell id="Mp4XWGw3tbu1l4GpmVqD-5" value="&lt;font style=&quot;font-size: 14px;&quot;&gt;Librarian&lt;/font&gt;" style="rounded=0;whiteSpace=wrap;html=1;" vertex="1" parent="1">
          <mxGeometry x="170" y="300" width="90" height="40" as="geometry" />
        </mxCell>
      </root>
    </mxGraphModel>
  </diagram>
</mxfile>
